<?xml version="1.0" encoding="UTF-8" standalone="no"?>
<svg
   xmlns:dc="http://purl.org/dc/elements/1.1/"
   xmlns:cc="http://creativecommons.org/ns#"
   xmlns:rdf="http://www.w3.org/1999/02/22-rdf-syntax-ns#"
   xmlns:svg="http://www.w3.org/2000/svg"
   xmlns="http://www.w3.org/2000/svg"
   xmlns:sodipodi="http://sodipodi.sourceforge.net/DTD/sodipodi-0.dtd"
   xmlns:inkscape="http://www.inkscape.org/namespaces/inkscape"
   height="512"
   width="512"
   version="1.1"
   id="svg114"
   sodipodi:docname="docker_logo.svg"
   inkscape:version="1.0.1 (c497b03c, 2020-09-10)">
  <metadata
     id="metadata120">
    <rdf:RDF>
      <cc:Work
         rdf:about="">
        <dc:format>image/svg+xml</dc:format>
        <dc:type
           rdf:resource="http://purl.org/dc/dcmitype/StillImage" />
      </cc:Work>
    </rdf:RDF>
  </metadata>
  <defs
     id="defs118" />
  <sodipodi:namedview
     pagecolor="#ffffff"
     bordercolor="#666666"
     borderopacity="1"
     objecttolerance="10"
     gridtolerance="10"
     guidetolerance="10"
     inkscape:pageopacity="0"
     inkscape:pageshadow="2"
     inkscape:window-width="1440"
     inkscape:window-height="855"
     id="namedview116"
     showgrid="false"
     inkscape:zoom="1.2636719"
     inkscape:cx="256"
     inkscape:cy="224.34621"
     inkscape:window-x="0"
     inkscape:window-y="23"
     inkscape:window-maximized="0"
     inkscape:current-layer="svg114" />
  <path
     fill="#ccc"
     d="m 290.99199,241.91319 h 52.98398 v -48.66351 h -52.98398 z m -63.07617,0 h 52.98398 v -48.66351 h -52.98398 z m -61.81464,0 h 52.98398 v -48.66351 h -52.98398 z m -61.81464,0 h 51.72245 v -48.66351 h -51.72245 z m -63.076171,0 H 94.194347 V 193.24968 H 41.210369 Z m 63.076171,-58.90845 h 51.72245 v -48.66351 h -51.72245 z m 61.81464,0 h 52.98398 v -48.66351 h -52.98398 z m 61.81464,0 h 52.98398 v -48.66351 h -52.98398 z m 0,-58.90847 H 280.8998 V 75.432766 h -52.98398 z m 285.10427,96.04641 c 0,0 -22.70742,-21.77052 -69.38378,-14.08681 -5.04609,-37.13794 -44.15332,-58.90845 -44.15332,-58.90845 0,0 -36.58417,44.82165 -10.09218,94.76577 -7.56914,3.84186 -20.18438,8.96434 -39.10723,8.96434 H 3.3646687 c -6.3076163,24.33175 -6.3076163,185.6897 167.7826013,185.6897 124.89081,0 218.24354,-58.90846 262.39685,-166.48042 65.59922,5.12247 79.47597,-49.94413 79.47597,-49.94413 z"
     id="path112"
     style="fill:#cccccc;fill-opacity:1;stroke-width:1.27104" />
</svg>
