<?xml version="1.0" encoding="UTF-8" standalone="no"?>
<svg
   xmlns:dc="http://purl.org/dc/elements/1.1/"
   xmlns:cc="http://creativecommons.org/ns#"
   xmlns:rdf="http://www.w3.org/1999/02/22-rdf-syntax-ns#"
   xmlns:svg="http://www.w3.org/2000/svg"
   xmlns="http://www.w3.org/2000/svg"
   xmlns:sodipodi="http://sodipodi.sourceforge.net/DTD/sodipodi-0.dtd"
   xmlns:inkscape="http://www.inkscape.org/namespaces/inkscape"
   width="120"
   height="60"
   version="1.1"
   id="svg68"
   sodipodi:docname="grpc_logo.svg"
   inkscape:version="1.0.1 (c497b03c, 2020-09-10)">
  <metadata
     id="metadata74">
    <rdf:RDF>
      <cc:Work
         rdf:about="">
        <dc:format>image/svg+xml</dc:format>
        <dc:type
           rdf:resource="http://purl.org/dc/dcmitype/StillImage" />
      </cc:Work>
    </rdf:RDF>
  </metadata>
  <defs
     id="defs72" />
  <sodipodi:namedview
     pagecolor="#ffffff"
     bordercolor="#666666"
     borderopacity="1"
     objecttolerance="10"
     gridtolerance="10"
     guidetolerance="10"
     inkscape:pageopacity="0"
     inkscape:pageshadow="2"
     inkscape:window-width="1440"
     inkscape:window-height="855"
     id="namedview70"
     showgrid="false"
     inkscape:zoom="9.1416667"
     inkscape:cx="60"
     inkscape:cy="30"
     inkscape:window-x="0"
     inkscape:window-y="23"
     inkscape:window-maximized="0"
     inkscape:current-layer="svg68" />
  <path
     d="m 44.764378,27.639646 h 3.382697 c 1.048667,0 1.8876,-0.120933 2.507811,-0.360225 0.620211,-0.239293 1.098103,-0.585367 1.429182,-1.034362 0.331079,-0.448996 0.554295,-1.003486 0.671146,-1.659611 0.116852,-0.656125 0.175277,-1.420318 0.175277,-2.286146 0,-0.865828 -0.05992,-1.628734 -0.175277,-2.286146 -0.115353,-0.657411 -0.359542,-1.21962 -0.729572,-1.685341 -0.370029,-0.46572 -0.898856,-0.810507 -1.546033,-1.034362 -0.647177,-0.223854 -1.535547,-0.337068 -2.624662,-0.337068 H 44.764378 Z M 38.816942,12.137082 h 9.565334 c 6.999098,0 10.498647,3.495474 10.498647,10.48771 0,2.07387 -0.379018,3.8557 -1.138552,5.344203 -0.759534,1.488504 -2.089842,2.684967 -3.995418,3.589391 l 6.414841,16.307925 H 53.862306 L 48.229471,32.347022 h -3.465093 v 15.519289 h -5.947436 z m 24.844401,0 h 8.922652 c 1.647904,0 3.071094,0.183972 4.314512,0.553203 1.243419,0.369232 2.371484,1.020211 3.382698,1.955511 a 8.913663,7.6547931 0 0 1 2.100329,3.287058 c 0.389504,1.254357 0.584257,2.952563 0.584257,5.094618 0,1.572128 -0.146814,2.697833 -0.359543,3.818391 -0.212729,1.120559 -0.903351,3.070923 -3.6164,4.393466 -1.695844,0.827232 -4.130247,1.124418 -6.345929,1.124418 h -3.032144 v 15.502564 h -5.947436 z m 5.947436,15.502564 h 2.858364 c 1.205967,0 2.137782,-0.132511 2.801437,-0.398821 0.663656,-0.26631 1.147541,-0.625249 1.457647,-1.080677 0.310105,-0.455428 0.494371,-1.008631 0.554295,-1.655751 0.05992,-0.647119 0.08689,-1.368857 0.08689,-2.163926 0,-0.73589 -0.02996,-1.43447 -0.08689,-2.097028 -0.05693,-0.662557 -0.233703,-1.235059 -0.524334,-1.723936 -0.29063,-0.488878 -0.749047,-0.868401 -1.370756,-1.147576 -0.621709,-0.279175 -1.516072,-0.419405 -2.68159,-0.419405 h -3.090569 z m 36.683841,12.247669 c 0,1.103834 -0.24269,2.157494 -0.72957,3.160979 -0.48688,1.003486 -1.15653,1.882179 -2.01194,2.634793 a 9.9473483,8.5424918 0 0 1 -3.00368,1.806274 8.7788345,7.5390064 0 0 1 -3.703291,0.677996 c -1.128065,0 -2.274107,-0.133798 -3.441123,-0.401394 A 8.3443871,7.1659156 0 0 1 90.254021,46.385527 C 89.320708,45.733261 88.553684,44.871293 87.949951,43.799622 87.346219,42.727951 87.0466,41.374532 87.0466,39.734219 V 20.050466 c 0,-1.157868 0.233703,-2.257843 0.699611,-3.261328 0.465907,-1.003486 1.128065,-1.873173 1.983477,-2.609063 0.855412,-0.735889 1.875614,-1.31225 3.062105,-1.731655 1.186491,-0.419406 2.498822,-0.627822 3.936993,-0.627822 1.36027,0 2.624662,0.209703 3.790184,0.627822 1.16551,0.418119 2.17673,1.003485 3.03214,1.756099 0.85541,0.752614 1.52806,1.655751 2.01194,2.709411 0.48388,1.05366 0.72957,2.187084 0.72957,3.437581 v 2.006971 h -5.94743 v -1.705925 c 0,-1.003486 -0.32958,-1.873173 -0.991742,-2.609062 A 3.2059225,2.7531525 0 0 0 96.67036,16.93966 c -1.477121,0 -2.459871,0.393676 -2.945254,1.179739 -0.485382,0.786064 -0.729572,1.78183 -0.729572,2.984726 v 18.266009 c 0,1.036935 0.262167,1.906623 0.787998,2.609062 0.525831,0.70244 1.468133,1.054947 2.828403,1.054947 0.389504,0 0.808971,-0.05918 1.253905,-0.176253 0.444934,-0.117074 0.853914,-0.308765 1.225441,-0.578934 0.371528,-0.27017 0.671147,-0.635541 0.903351,-1.103834 0.232208,-0.468294 0.350558,-1.054947 0.350558,-1.7561 v -1.7561 h 5.94743 z m 11.65518,-9.931933 c 0,-1.304531 -1.22844,-2.362051 -2.74151,-2.362051 h -14.85661 v 4.721528 h 12.11359 v 5.268299 h -1.86662 l 4.6411,5.631098 4.64109,-5.631098 H 117.9493 Z M 13.620488,32.361174 v 7.072 c 0,1.471778 0.292129,2.753152 0.874888,3.838975 0.582758,1.085823 1.351281,1.990246 2.304069,2.709411 0.952788,0.719164 2.022428,1.263362 3.205923,1.631307 a 10.486662,9.005639 0 0 0 3.586438,0.551917 10.486662,9.005639 0 0 0 3.586439,-0.551917 c 1.186491,-0.367945 2.254632,-0.913429 3.205922,-1.631307 0.95129,-0.717878 1.719813,-1.621015 2.30407,-2.709411 0.584257,-1.088396 0.874887,-2.367197 0.874887,-3.838975 V 27.648652 l -10.658943,-0.01286 -0.01498,4.725387 h 4.723492 v 7.073286 c 0,1.237632 -0.398493,2.148488 -1.195479,2.735141 A 4.2096459,3.6151208 0 0 1 23.58881,43.048294 4.2096459,3.6151208 0 0 1 20.760407,42.169601 C 19.963421,41.584235 19.564928,40.672092 19.564928,39.43446 V 20.567646 c 0,-1.237632 0.398493,-2.148488 1.195479,-2.735141 a 4.2096459,3.6151208 0 0 1 2.828403,-0.878693 4.2096459,3.6151208 0 0 1 2.828403,0.878693 c 0.796986,0.585367 1.195479,1.497509 1.195479,2.735141 v 1.806274 h 5.947436 v -1.806274 c 0,-1.438329 -0.292129,-2.70941 -0.874887,-3.813244 -0.582759,-1.103834 -1.351282,-2.015977 -2.30407,-2.735142 -0.952788,-0.719164 -2.022428,-1.263362 -3.205922,-1.631307 a 10.486662,9.005639 0 0 0 -3.586439,-0.551917 10.486662,9.005639 0 0 0 -3.586438,0.551917 c -1.186491,0.367945 -2.254633,0.913429 -3.205923,1.631307 -0.95129,0.717879 -1.719813,1.631308 -2.30407,2.735142 -0.584256,1.103834 -0.874887,2.374915 -0.874887,3.813244 v 7.072 H 7.5367261 V 22.372634 H 9.403352 L 4.7622549,16.741536 0.1211577,22.372634 h 1.9295459 v 7.629063 c 0,1.304531 1.2284376,2.36205 2.7415132,2.36205 h 8.8282712 z"
     fill="#cccccc"
     fill-rule="evenodd"
     id="path66"
     style="stroke-width:1.38828" />
</svg>
